<svg xmlns="http://www.w3.org/2000/svg" viewBox="0 0 32 32">
  <defs>
    <linearGradient id="flame" x1="0" y1="1" x2="0" y2="0">
      <stop offset="0%" stop-color="#FF6B35"/>
      <stop offset="50%" stop-color="#F0C75E"/>
      <stop offset="100%" stop-color="#FFE082"/>
    </linearGradient>
  </defs>
  <rect x="14" y="14" width="4" height="16" rx="1" fill="#8B4513"/>
  <path d="M16 2 C12 6, 10 10, 11 14 C12 16, 14 16, 16 15 C14 14, 13 12, 14 10 C15 8, 16 6, 16 2 Z" fill="url(#flame)" opacity="0.9"/>
  <path d="M16 2 C20 6, 22 10, 21 14 C20 16, 18 16, 16 15 C18 14, 19 12, 18 10 C17 8, 16 6, 16 2 Z" fill="url(#flame)"/>
</svg>
